# Blender 4.4.3
# www.blender.org
mtllib Chicken.mtl
o Chicken
v -0.076200 -0.063500 -0.152400
v 0.076200 -0.063500 -0.152400
v -0.076200 0.088900 -0.152400
v 0.076200 0.088900 -0.152400
v -0.076200 -0.063500 0.050800
v 0.076200 -0.063500 0.050800
v -0.076200 0.088900 0.050800
v 0.076200 0.088900 0.050800
v 0.076200 -0.012700 -0.127000
v 0.101600 -0.012700 -0.127000
v 0.076200 0.088900 -0.127000
v 0.101600 0.088900 -0.127000
v 0.076200 -0.012700 0.025400
v 0.101600 -0.012700 0.025400
v 0.076200 0.088900 0.025400
v 0.101600 0.088900 0.025400
v -0.025400 0.038100 0.101600
v 0.025400 0.038100 0.101600
v -0.025400 0.088900 0.101600
v 0.025400 0.088900 0.101600
v -0.025400 0.038100 0.127000
v 0.025400 0.038100 0.127000
v -0.025400 0.088900 0.127000
v 0.025400 0.088900 0.127000
v -0.050800 0.088900 0.101600
v 0.050800 0.088900 0.101600
v -0.050800 0.139700 0.101600
v 0.050800 0.139700 0.101600
v -0.050800 0.088900 0.152400
v 0.050800 0.088900 0.152400
v -0.050800 0.139700 0.152400
v 0.050800 0.139700 0.152400
v -0.050800 0.038100 0.025400
v 0.050800 0.038100 0.025400
v -0.050800 0.190500 0.025400
v 0.050800 0.190500 0.025400
v -0.050800 0.038100 0.101600
v 0.050800 0.038100 0.101600
v -0.050800 0.190500 0.101600
v 0.050800 0.190500 0.101600
v -0.076200 -0.012700 -0.127000
v -0.101600 -0.012700 -0.127000
v -0.076200 0.088900 -0.127000
v -0.101600 0.088900 -0.127000
v -0.076200 -0.012700 0.025400
v -0.101600 -0.012700 0.025400
v -0.076200 0.088900 0.025400
v -0.101600 0.088900 0.025400
v -0.025400 -0.190500 -0.050800
v -0.050800 -0.190500 -0.050800
v -0.025400 -0.063500 -0.050800
v -0.050800 -0.063500 -0.050800
v -0.025400 -0.190500 0.000000
v -0.050800 -0.190500 0.000000
v -0.076200 -0.190500 -0.050800
v -0.076200 -0.190500 0.000000
v -0.000000 -0.190500 -0.050800
v -0.000000 -0.190500 0.000000
v -0.025400 -0.190500 0.025400
v -0.050800 -0.190500 0.025400
v 0.025400 -0.190500 -0.050800
v 0.050800 -0.190500 -0.050800
v 0.025400 -0.063500 -0.050800
v 0.050800 -0.063500 -0.050800
v 0.025400 -0.190500 0.000000
v 0.050800 -0.190500 0.000000
v 0.076200 -0.190500 -0.050800
v 0.076200 -0.190500 0.000000
v -0.000000 -0.190500 -0.050800
v -0.000000 -0.190500 0.000000
v 0.025400 -0.190500 0.025400
v 0.050800 -0.190500 0.025400
vn -0.0000 -0.0000 -1.0000
vn -0.0000 -0.0000 1.0000
vn -0.0000 -1.0000 -0.0000
vn 1.0000 -0.0000 -0.0000
vn -0.0000 1.0000 -0.0000
vn -1.0000 -0.0000 -0.0000
vt 0.280953 0.765672
vt 0.187500 0.765672
vt 0.187500 0.859340
vt 0.280953 0.859340
vt 0.093937 0.765672
vt 0.093937 0.859340
vt 0.280953 0.640665
vt 0.375000 0.640665
vt 0.375000 0.765672
vt 0.000000 0.640665
vt 0.093929 0.640665
vt 0.093929 0.765672
vt 0.000000 0.765672
vt 0.093929 0.640665
vt 0.187500 0.640665
vt 0.500000 0.640881
vt 0.500000 0.700000
vt 0.468407 0.700000
vt 0.468407 0.640881
vt 0.359648 0.640881
vt 0.375273 0.640881
vt 0.375273 0.700000
vt 0.359648 0.700000
vt 0.500000 0.703139
vt 0.487522 0.703139
vt 0.487500 0.796765
vt 0.500000 0.796765
vt 0.468407 0.703139
vt 0.468407 0.796765
vt 0.593548 0.640881
vt 0.593548 0.700000
vt 0.250000 0.875000
vt 0.312500 0.875000
vt 0.312500 0.906269
vt 0.250000 0.906269
vt 0.250000 0.937500
vt 0.312500 0.937500
vt 0.343515 0.875000
vt 0.343515 0.906269
vt 0.218678 0.906269
vt 0.218678 0.875000
vt 0.400000 0.937500
vt 0.400000 0.968762
vt 0.343781 0.968762
vt 0.343781 0.937500
vt 0.312500 0.968762
vt 0.250000 0.968762
vt 0.312500 1.000000
vt 0.375000 1.000000
vt 0.375000 0.968762
vt 0.250000 1.000000
vt 0.218839 0.968762
vt 0.218839 0.937500
vt 0.218563 0.859443
vt 0.218563 0.952875
vt 0.156437 0.952875
vt 0.156437 0.859443
vt 0.046929 0.859443
vt 0.109429 0.859443
vt 0.109429 0.952875
vt 0.046929 0.952875
vt 0.691551 -0.437364
vt 0.976122 -0.437364
vt 0.976122 -0.223935
vt 0.691551 -0.223935
vt 0.156437 0.859443
vt 0.156437 0.952875
vt 0.109429 0.952875
vt 0.109429 0.859443
vt 0.109500 1.000000
vt 0.046852 1.000000
vt 0.109544 0.952875
vt 0.000000 0.952875
vt 0.000000 0.859443
vt 0.575000 0.950000
vt 0.575000 0.875000
vt 0.562500 0.875000
vt 0.562500 0.950000
vt 0.531222 0.953167
vt 0.531222 0.984389
vt 0.515611 0.984389
vt 0.515611 0.953167
vt 0.546833 0.953167
vt 0.546833 0.984389
vt 0.500000 0.984389
vt 0.500000 0.953167
vt 0.531222 1.000000
vt 0.515611 1.000000
s 1
usemtl 02_-_Default
f 1/1/1 3/2/1 4/3/1 2/4/1
f 5/5/2 6/2/2 8/3/2 7/6/2
f 1/7/3 2/8/3 6/9/3 5/1/3
f 2/10/4 4/11/4 8/12/4 6/13/4
f 4/14/5 3/15/5 7/2/5 8/12/5
f 3/15/6 1/7/6 5/1/6 7/2/6
f 9/16/1 11/17/1 12/18/1 10/19/1
f 13/20/2 14/21/2 16/22/2 15/23/2
f 9/24/3 10/25/3 14/26/3 13/27/3
f 10/19/4 12/18/4 16/22/4 14/21/4
f 12/28/5 11/25/5 15/26/5 16/29/5
f 11/17/6 9/16/6 13/30/6 15/31/6
f 21/32/2 22/33/2 24/34/2 23/35/2
f 17/36/3 18/37/3 22/34/3 21/35/3
f 18/38/4 20/39/4 24/34/4 22/33/4
f 19/40/6 17/41/6 21/32/6 23/35/6
f 25/42/1 27/43/1 28/44/1 26/45/1
f 29/36/2 30/37/2 32/46/2 31/47/2
f 25/48/3 26/49/3 30/50/3 29/46/3
f 26/45/4 28/44/4 32/46/4 30/37/4
f 28/48/5 27/51/5 31/47/5 32/46/5
f 27/52/6 25/53/6 29/36/6 31/47/6
f 33/54/1 35/55/1 36/56/1 34/57/1
f 37/58/2 38/59/2 40/60/2 39/61/2
f 33/62/3 34/63/3 38/64/3 37/65/3
f 34/66/4 36/67/4 40/68/4 38/69/4
f 36/70/5 35/71/5 39/61/5 40/72/5
f 35/73/6 33/74/6 37/58/6 39/61/6
f 41/16/1 42/19/1 44/18/1 43/17/1
f 45/20/2 47/23/2 48/22/2 46/21/2
f 41/24/3 45/27/3 46/26/3 42/25/3
f 42/19/6 46/21/6 48/22/6 44/18/6
f 44/28/5 48/29/5 47/26/5 43/25/5
f 43/17/4 47/31/4 45/30/4 41/16/4
f 52/75/2 50/76/2 49/77/2 51/78/2
f 50/79/5 54/80/5 53/81/5 49/82/5
f 50/79/5 55/83/5 56/84/5 54/80/5
f 53/81/5 58/85/5 57/86/5 49/82/5
f 54/80/5 60/87/5 59/88/5 53/81/5
f 61/77/2 62/76/2 64/75/2 63/78/2
f 62/79/5 61/82/5 65/81/5 66/80/5
f 62/79/5 66/80/5 68/84/5 67/83/5
f 65/81/5 61/82/5 69/86/5 70/85/5
f 66/80/5 65/81/5 71/88/5 72/87/5
